<mxfile host="app.diagrams.net" modified="2023-08-17T06:30:54.535Z" agent="Mozilla/5.0 (Windows NT 10.0; Win64; x64) AppleWebKit/537.36 (KHTML, like Gecko) Chrome/113.0.0.0 Safari/537.36 Edg/113.0.1774.50" version="21.6.8" etag="gNVqk8nKF7RP2BS71HDg" type="github">
  <diagram name="第 1 页" id="ni2XKdgbC6iAozZIejau">
    <mxGraphModel>
      <root>
        <mxCell id="0" />
        <mxCell id="1" parent="0" />
      </root>
    </mxGraphModel>
  </diagram>
</mxfile>
